<svg width="680" viewBox="0 0 680 920" xmlns="http://www.w3.org/2000/svg" style="background:#ffffff;font-family:sans-serif">
<defs>
  <marker id="arrow" viewBox="0 0 10 10" refX="8" refY="5" markerWidth="6" markerHeight="6" orient="auto-start-reverse">
    <path d="M2 1L8 5L2 9" fill="none" stroke="context-stroke" stroke-width="1.5" stroke-linecap="round" stroke-linejoin="round"/>
  </marker>
  <style>
    text { font-family: sans-serif; fill: #1a1a1a; }
    .th { font-size: 14px; font-weight: 600; }
    .ts { font-size: 12px; font-weight: 400; fill: #444; }
    .arr { stroke: #888; stroke-width: 1.5; fill: none; }
  </style>
</defs>

<!-- LAYER 1: Presentation -->
<rect x="30" y="30" width="620" height="108" rx="12" fill="#EEEDFE" stroke="#534AB7" stroke-width="0.5"/>
<text class="th" x="340" y="56" text-anchor="middle" fill="#3C3489">Layer 1 — Presentation (browser)</text>
<rect x="50" y="70" width="168" height="52" rx="8" fill="#CECBF6" stroke="#534AB7" stroke-width="0.5"/>
<text class="th" x="134" y="90" text-anchor="middle" fill="#26215C">index.html</text>
<text class="ts" x="134" y="108" text-anchor="middle" fill="#3C3489">Upload UI, config panel</text>
<rect x="236" y="70" width="168" height="52" rx="8" fill="#CECBF6" stroke="#534AB7" stroke-width="0.5"/>
<text class="th" x="320" y="90" text-anchor="middle" fill="#26215C">main.js</text>
<text class="ts" x="320" y="108" text-anchor="middle" fill="#3C3489">SSE polling, results render</text>
<rect x="422" y="70" width="168" height="52" rx="8" fill="#CECBF6" stroke="#534AB7" stroke-width="0.5"/>
<text class="th" x="506" y="90" text-anchor="middle" fill="#26215C">style.css</text>
<text class="ts" x="506" y="108" text-anchor="middle" fill="#3C3489">B&amp;W theme, layout</text>

<line x1="340" y1="138" x2="340" y2="162" stroke="#888" stroke-width="1.5" fill="none" marker-end="url(#arrow)"/>
<text class="ts" x="356" y="155" fill="#888">POST /process · GET /status</text>

<!-- LAYER 2: API Gateway -->
<rect x="30" y="162" width="620" height="100" rx="12" fill="#E1F5EE" stroke="#0F6E56" stroke-width="0.5"/>
<text class="th" x="340" y="186" text-anchor="middle" fill="#085041">Layer 2 — API gateway (Flask)</text>
<rect x="50" y="200" width="134" height="46" rx="8" fill="#9FE1CB" stroke="#0F6E56" stroke-width="0.5"/>
<text class="th" x="117" y="218" text-anchor="middle" fill="#04342C">GET /</text>
<text class="ts" x="117" y="234" text-anchor="middle" fill="#085041">Serve UI</text>
<rect x="202" y="200" width="134" height="46" rx="8" fill="#9FE1CB" stroke="#0F6E56" stroke-width="0.5"/>
<text class="th" x="269" y="218" text-anchor="middle" fill="#04342C">POST /process</text>
<text class="ts" x="269" y="234" text-anchor="middle" fill="#085041">Spawn background thread</text>
<rect x="354" y="200" width="134" height="46" rx="8" fill="#9FE1CB" stroke="#0F6E56" stroke-width="0.5"/>
<text class="th" x="421" y="218" text-anchor="middle" fill="#04342C">GET /status/:id</text>
<text class="ts" x="421" y="234" text-anchor="middle" fill="#085041">SSE stream updates</text>
<rect x="506" y="200" width="130" height="46" rx="8" fill="#9FE1CB" stroke="#0F6E56" stroke-width="0.5"/>
<text class="th" x="571" y="218" text-anchor="middle" fill="#04342C">GET /download/:id</text>
<text class="ts" x="571" y="234" text-anchor="middle" fill="#085041">Export JSON</text>

<line x1="340" y1="262" x2="340" y2="290" stroke="#888" stroke-width="1.5" fill="none" marker-end="url(#arrow)"/>

<!-- LAYER 3: File Management -->
<rect x="30" y="290" width="620" height="56" rx="12" fill="#F1EFE8" stroke="#5F5E5A" stroke-width="0.5"/>
<text class="th" x="340" y="312" text-anchor="middle" fill="#2C2C2A">Layer 3 — File management</text>
<text class="ts" x="340" y="330" text-anchor="middle" fill="#444441">.tmp_flask_uploads/  ·  16 MB max  ·  UUID-named files</text>

<line x1="340" y1="346" x2="340" y2="374" stroke="#888" stroke-width="1.5" fill="none" marker-end="url(#arrow)"/>

<!-- LAYER 7: Orchestration -->
<rect x="30" y="374" width="620" height="98" rx="12" fill="#FAECE7" stroke="#993C1D" stroke-width="0.5"/>
<text class="th" x="340" y="398" text-anchor="middle" fill="#4A1B0C">Layer 7 — Orchestration (app.py)</text>
<rect x="50" y="412" width="184" height="46" rx="8" fill="#F5C4B3" stroke="#993C1D" stroke-width="0.5"/>
<text class="th" x="142" y="430" text-anchor="middle" fill="#4A1B0C">Step 1 · Extract PDF</text>
<text class="ts" x="142" y="446" text-anchor="middle" fill="#712B13">utils.extract_text_from_pdf</text>
<rect x="250" y="412" width="180" height="46" rx="8" fill="#F5C4B3" stroke="#993C1D" stroke-width="0.5"/>
<text class="th" x="340" y="430" text-anchor="middle" fill="#4A1B0C">Step 2 · Split clauses</text>
<text class="ts" x="340" y="446" text-anchor="middle" fill="#712B13">utils.split_into_clauses</text>
<rect x="446" y="412" width="184" height="46" rx="8" fill="#F5C4B3" stroke="#993C1D" stroke-width="0.5"/>
<text class="th" x="538" y="430" text-anchor="middle" fill="#4A1B0C">Step 3 · Load models</text>
<text class="ts" x="538" y="446" text-anchor="middle" fill="#712B13">models.load_models</text>

<line x1="340" y1="472" x2="340" y2="500" stroke="#888" stroke-width="1.5" fill="none" marker-end="url(#arrow)"/>

<!-- LAYER 4: Utilities -->
<rect x="30" y="500" width="300" height="98" rx="12" fill="#FAEEDA" stroke="#854F0B" stroke-width="0.5"/>
<text class="th" x="180" y="524" text-anchor="middle" fill="#412402">Layer 4 — Utilities (utils.py)</text>
<text class="ts" x="180" y="544" text-anchor="middle" fill="#633806">PyPDF2 extraction</text>
<text class="ts" x="180" y="560" text-anchor="middle" fill="#633806">spaCy sentence segmentation</text>
<text class="ts" x="180" y="576" text-anchor="middle" fill="#633806">Regex text cleaning</text>

<!-- LAYER 5: Models -->
<rect x="350" y="500" width="300" height="98" rx="12" fill="#E6F1FB" stroke="#185FA5" stroke-width="0.5"/>
<text class="th" x="500" y="524" text-anchor="middle" fill="#042C53">Layer 5 — Models (models.py)</text>
<text class="ts" x="500" y="544" text-anchor="middle" fill="#0C447C">Groq API client (singleton)</text>
<text class="ts" x="500" y="560" text-anchor="middle" fill="#0C447C">BAAI/bge-large-en-v1.5 embeddings</text>
<text class="ts" x="500" y="576" text-anchor="middle" fill="#0C447C">ModelBundle dataclass</text>

<line x1="180" y1="598" x2="240" y2="628" stroke="#888" stroke-width="1.5" fill="none" marker-end="url(#arrow)"/>
<line x1="500" y1="598" x2="440" y2="628" stroke="#888" stroke-width="1.5" fill="none" marker-end="url(#arrow)"/>

<!-- LAYER 6: Core Processing -->
<rect x="30" y="628" width="620" height="116" rx="12" fill="#FBEAF0" stroke="#993556" stroke-width="0.5"/>
<text class="th" x="340" y="652" text-anchor="middle" fill="#4B1528">Layer 6 — Core processing (processing.py)</text>
<rect x="50" y="668" width="168" height="62" rx="8" fill="#F4C0D1" stroke="#993556" stroke-width="0.5"/>
<text class="th" x="134" y="688" text-anchor="middle" fill="#4B1528">simplify_clause</text>
<text class="ts" x="134" y="704" text-anchor="middle" fill="#72243E">Groq LLM → plain</text>
<text class="ts" x="134" y="718" text-anchor="middle" fill="#72243E">English rewrite</text>
<rect x="236" y="668" width="168" height="62" rx="8" fill="#F4C0D1" stroke="#993556" stroke-width="0.5"/>
<text class="th" x="320" y="688" text-anchor="middle" fill="#4B1528">detect_importance</text>
<text class="ts" x="320" y="704" text-anchor="middle" fill="#72243E">Groq LLM → IMPORTANT</text>
<text class="ts" x="320" y="718" text-anchor="middle" fill="#72243E">or NORMAL</text>
<rect x="422" y="668" width="168" height="62" rx="8" fill="#F4C0D1" stroke="#993556" stroke-width="0.5"/>
<text class="th" x="506" y="688" text-anchor="middle" fill="#4B1528">semantic_similarity</text>
<text class="ts" x="506" y="704" text-anchor="middle" fill="#72243E">BGE embeddings →</text>
<text class="ts" x="506" y="718" text-anchor="middle" fill="#72243E">cosine score 0–1</text>

<line x1="340" y1="744" x2="340" y2="772" stroke="#888" stroke-width="1.5" fill="none" marker-end="url(#arrow)"/>

<!-- LAYER 8: Evaluation -->
<rect x="30" y="772" width="620" height="88" rx="12" fill="#EAF3DE" stroke="#3B6D11" stroke-width="0.5"/>
<text class="th" x="340" y="796" text-anchor="middle" fill="#173404">Layer 8 — Evaluation (evaluation.py)</text>
<rect x="50" y="812" width="130" height="36" rx="8" fill="#C0DD97" stroke="#3B6D11" stroke-width="0.5"/>
<text class="th" x="115" y="834" text-anchor="middle" fill="#173404">BLEU score</text>
<rect x="198" y="812" width="130" height="36" rx="8" fill="#C0DD97" stroke="#3B6D11" stroke-width="0.5"/>
<text class="th" x="263" y="834" text-anchor="middle" fill="#173404">ROUGE-1/2/L</text>
<rect x="346" y="812" width="130" height="36" rx="8" fill="#C0DD97" stroke="#3B6D11" stroke-width="0.5"/>
<text class="th" x="411" y="834" text-anchor="middle" fill="#173404">Mean similarity</text>
<rect x="494" y="812" width="130" height="36" rx="8" fill="#C0DD97" stroke="#3B6D11" stroke-width="0.5"/>
<text class="th" x="559" y="834" text-anchor="middle" fill="#173404">F1 / accuracy</text>

<line x1="340" y1="860" x2="340" y2="882" stroke="#888" stroke-width="1.5" fill="none" marker-end="url(#arrow)"/>

<!-- LAYER 9+10 footer -->
<rect x="30" y="882" width="296" height="24" rx="8" fill="#F1EFE8" stroke="#5F5E5A" stroke-width="0.5"/>
<text class="ts" x="178" y="898" text-anchor="middle" fill="#2C2C2A">Layer 9 — Groq API + BGE (external/local)</text>
<rect x="354" y="882" width="296" height="24" rx="8" fill="#F1EFE8" stroke="#5F5E5A" stroke-width="0.5"/>
<text class="ts" x="502" y="898" text-anchor="middle" fill="#2C2C2A">Layer 10 — JSON output (clauses, summary, eval)</text>

</svg>
